<svg xmlns="http://www.w3.org/2000/svg" fill="none" viewBox="-0.715 -0.715 20 20" id="Calendar-Star--Streamline-Core" height="20" width="20">
  <g id="calendar-star--calendar-date-day-favorite-like-month-star">
    <path id="Vector" stroke="currentColor" stroke-linecap="round" stroke-linejoin="round" d="M1.9896428571428573 2.652857142857143c-0.35179538571428576 0 -0.6891724928571429 0.13975251428571428 -0.9379269278571429 0.3884976642857143C0.8029628207142858 3.2901132214285718 0.6632142857142858 3.627490328571429 0.6632142857142858 3.9792857142857145v12.60107142857143c0 0.35176885714285716 0.139748535 0.6892122857142857 0.38850164357142863 0.9379176428571429 0.24875443500000002 0.24870535714285716 0.5861315421428571 0.3885109285714286 0.9379269278571429 0.3885109285714286h14.590714285714286c0.35176885714285716 0 0.6892122857142857 -0.13980557142857142 0.9379176428571429 -0.3885109285714286s0.3885109285714286 -0.5861487857142857 0.3885109285714286 -0.9379176428571429V3.9792857142857145c0 -0.35179538571428576 -0.13980557142857142 -0.6891724928571429 -0.3885109285714286 -0.9379309071428572C17.26956942857143 2.7926096571428576 16.932126 2.652857142857143 16.580357142857142 2.652857142857143h-2.652857142857143" stroke-width="1.43"></path>
    <path id="Vector_2" stroke="currentColor" stroke-linecap="round" stroke-linejoin="round" d="M4.6425 0.6632142857142858v3.9792857142857145" stroke-width="1.43"></path>
    <path id="Vector_3" stroke="currentColor" stroke-linecap="round" stroke-linejoin="round" d="M13.9275 0.6632142857142858v3.9792857142857145" stroke-width="1.43"></path>
    <path id="Vector_4" stroke="currentColor" stroke-linecap="round" stroke-linejoin="round" d="M4.6425 2.652857142857143h6.632142857142858" stroke-width="1.43"></path>
    <path id="Vector_5" stroke="currentColor" stroke-linecap="round" stroke-linejoin="round" d="m9.614909314285715 6.17108955 1.109703407142857 2.232326228571429c0.024817478571428575 0.056452800000000004 0.06417261428571429 0.10531842857142858 0.11404632857142857 0.14158298571428574 0.04987371428571429 0.03627782142857143 0.10848859285714287 0.05866793571428572 0.1698359142857143 0.06487562142857144l2.4645706071428575 0.37419876428571436c0.07043335714285714 0.009165621428571429 0.13688742857142858 0.03821440714285714 0.1914036428571429 0.08372417142857143 0.054648857142857145 0.04552302857142858 0.09510492857142858 0.10562350714285716 0.11672571428571428 0.17329789285714287 0.021620785714285714 0.06767438571428572 0.023610428571428574 0.1401239142857143 0.005571 0.20885944285714286 -0.017906785714285715 0.06873552857142858 -0.055179428571428574 0.1309317642857143 -0.10717542857142857 0.17929335000000002L11.860141692857143 11.3583405c-0.027138728571428572 0.05174397857142858 -0.041304985714285716 0.10931097857142857 -0.041304985714285716 0.16774015714285714 0 0.05844244285714286 0.014166257142857144 0.11599617857142858 0.041304985714285716 0.16775342142857144l0.3483864642857143 2.4517307785714286c0.014869264285714286 0.07083128571428572 0.008860542857142857 0.14444807142857144 -0.01730989285714286 0.21196328571428572 -0.02615717142857143 0.06751521428571429 -0.07134859285714286 0.12601071428571428 -0.13008285000000003 0.16832378571428575 -0.05873425714285715 0.04231307142857143 -0.12849113571428572 0.06671935714285715 -0.20082128571428573 0.07030071428571429 -0.07231688571428571 0.003448714285714286 -0.14410320000000001 -0.014192785714285715 -0.20663104285714287 -0.05066957142857143l-2.193621042857143 -1.1612882142857144c-0.05677114285714286 -0.02560007142857143 -0.11834395714285714 -0.038864357142857145 -0.18064630714285715 -0.038864357142857145 -0.06230235 0 -0.1238751642857143 0.013264285714285715 -0.18064630714285715 0.038864357142857145l-2.193621042857143 1.1612882142857144c-0.06252784285714286 0.03647678571428572 -0.13431415714285716 0.05411828571428572 -0.20663104285714287 0.05066957142857143 -0.07233015000000001 -0.003581357142857143 -0.1420870285714286 -0.02798764285714286 -0.20082128571428573 -0.07030071428571429s-0.10392567857142858 -0.10080857142857143 -0.13008285000000003 -0.16832378571428575c-0.026170435714285716 -0.06751521428571429 -0.03217915714285714 -0.141132 -0.01730989285714286 -0.21196328571428572l0.41290395 -2.4517307785714286c0.017760878571428575 -0.05690378571428572 0.021156535714285715 -0.11732260714285715 0.009908421428571429 -0.1758579 -0.011261378571428572 -0.058535292857142866 -0.036821657142857143 -0.11338311428571429 -0.07442590714285714 -0.15963567857142857L4.879280764285715 9.616355121428573c-0.048255471428571436 -0.04889215714285714 -0.08213245714285715 -0.1101201 -0.09790369285714287 -0.17697210000000002 -0.015771235714285715 -0.0668652642857143 -0.012826564285714286 -0.13676805 0.008489142857142858 -0.20208139285714288 0.02132897142857143 -0.06530007857142858 0.06020659285714286 -0.12346397142857143 0.11240155714285714 -0.16813808571428573 0.052194964285714296 -0.04466085 0.11566457142857144 -0.0741075642857143 0.1834716 -0.08509039285714286l2.464597135714286 -0.3613058785714286c0.06134732142857143 -0.006207685714285715 0.11996220000000002 -0.028584535714285715 0.1698359142857143 -0.06486235714285715 0.04987371428571429 -0.036264557142857146 0.08922885 -0.08513018571428572 0.1140330642857143 -0.14159625l1.1097166714285716 -2.2323129642857142c0.029698735714285718 -0.06319105714285715 0.07646860714285715 -0.11681856428571429 0.13505695714285715 -0.15482074285714287 0.05857508571428571 -0.037988914285714284 0.12662087142857145 -0.05884037142857143 0.19643080714285716 -0.06018006428571429 0.06980993571428572 -0.0013396928571428573 0.13859852142857143 0.01687217142857143 0.1985928857142857 0.05259289285714286 0.05999436428571429 0.03570745714285715 0.10880693571428574 0.08749122857142859 0.14090650714285716 0.1495017642857143Z" stroke-width="1.43"></path>
  </g>
</svg>